<svg xmlns="http://www.w3.org/2000/svg" viewBox="0 0 512 512" width="512" height="512"><path d="M465.423 48.24h-137.61V23.956c0-13.21-10.73-23.955-23.92-23.955h-95.785c-13.19 0-23.92 10.746-23.92 23.955V48.24H46.578c-6.656 0-12.05 5.394-12.05 12.05 0 6.654 5.394 12.048 12.05 12.048h22.33l15.23 396.396c.93 24.26 20.68 43.266 44.96 43.266h253.805c24.28 0 44.03-19.006 44.96-43.267L443.09 72.337h22.333c6.653 0 12.05-5.394 12.05-12.05 0-6.652-5.395-12.046-12.05-12.046zM208.285 24.098h95.43V48.24h-95.43V24.097zm195.5 443.712c-.434 11.267-9.606 20.093-20.883 20.093H129.1c-11.277 0-20.45-8.827-20.883-20.095L93.025 72.338h325.952l-15.193 395.47z" fill="#FFF"/><path d="M182.63 181.57c-.127-6.574-5.494-11.816-12.042-11.816-.078 0-.158 0-.236.002-6.652.128-11.943 5.626-11.815 12.278l3.78 196.634c.127 6.575 5.496 11.817 12.043 11.817.078 0 .158 0 .236-.002 6.653-.128 11.943-5.624 11.815-12.278l-3.78-196.634zM255.998 169.753c-6.654 0-12.05 5.394-12.05 12.05v196.633c0 6.654 5.395 12.05 12.05 12.05 6.655 0 12.05-5.395 12.05-12.05V181.802c0-6.654-5.395-12.05-12.05-12.05zM341.645 169.756c-6.628-.147-12.15 5.162-12.278 11.815l-3.78 196.635c-.13 6.653 5.16 12.15 11.814 12.278l.237.002c6.546 0 11.916-5.244 12.042-11.817l3.78-196.634c.128-6.654-5.16-12.15-11.815-12.278z" fill="#FFF"/></svg>