<svg xmlns="http://www.w3.org/2000/svg" viewBox="0 0 55.25 55.25" width="512" height="512"><path d="M52.618 2.63c-3.51-3.507-9.22-3.507-12.73 0L3.83 38.694c-.018.017-.028.038-.043.056-.02.023-.04.05-.058.075-.053.074-.094.153-.125.24-.01.025-.022.048-.03.074-.002.01-.008.02-.01.03L.025 54.02c-.016.066-.02.134-.022.2 0 .014-.004.026-.004.04 0 .113.026.224.065.33l.03.072c.05.107.11.21.196.296.096.095.208.168.33.218.12.05.25.075.378.075.077 0 .155-.008.23-.026l14.85-3.535c.028-.007.052-.022.078-.03.034-.012.066-.025.1-.04.07-.033.138-.074.2-.123.024-.02.05-.033.072-.054.008-.008.018-.012.026-.02L52.617 15.36c3.51-3.51 3.51-9.22 0-12.73zm-1.414 1.415c2.488 2.49 2.7 6.397.65 9.137l-9.787-9.787c2.74-2.05 6.65-1.838 9.137.65zm-4.95 14.85l-9.9-9.9 1.414-1.414 9.9 9.9-1.414 1.415zM4.96 50.288c-.39-.39-1.022-.39-1.413 0l-.757.757 2.554-10.728 4.422-.49-.57 5.12c-.003.04.01.074.01.11 0 .04-.013.073-.01.11.005.034.022.06.03.093.01.058.028.11.05.165.025.065.056.124.094.18.03.047.062.088.1.128.048.05.1.094.157.134.045.03.088.06.138.084.066.032.135.05.207.067.038.01.07.03.108.035.036.004.072.006.11.006h.002c.037 0 .074-.002.11-.006l5.122-.57-.49 4.423-10.73 2.554.757-.758c.39-.39.39-1.023 0-1.414zm12.55-5.48L39.89 22.43c.39-.39.39-1.023 0-1.414s-1.024-.39-1.415 0l-22.378 22.38-4.773.53.53-4.774 22.38-22.378c.39-.39.39-1.023 0-1.414s-1.023-.39-1.414 0L10.44 37.738l-3.183.354L34.94 10.41l9.9 9.9L17.157 47.99l.354-3.183zm31.572-28.74l-9.9-9.9 1.415-1.416 9.9 9.9-1.415 1.415z" fill="#FFF"/></svg>